<svg xmlns="http://www.w3.org/2000/svg" viewBox="0 0 171.82 157.32"><defs><style>.cls-1{fill:#fbbc03;}.cls-2{fill:#2b2b33;}</style></defs><g id="Layer_2" data-name="Layer 2"><g id="Layer_1-2" data-name="Layer 1"><g id="Layer_2-2" data-name="Layer 2"><g id="Layer_3" data-name="Layer 3"><rect id="Mid" class="cls-1" x="33.77" y="22.04" width="104.55" height="8.49"/><rect id="Bottom" class="cls-1" x="0.26" y="45.69" width="171.56" height="8.49"/><rect id="Mid-2" class="cls-1" y="45.69" width="5.96" height="49.67"/><rect id="Mid-3" class="cls-1" x="165.86" y="45.69" width="5.96" height="54.46"/><rect id="Top" class="cls-1" x="73.56" width="25.02" height="8.49"/></g></g><path class="cls-2" d="M0,108.08H4.48v18h.14a11.88,11.88,0,0,1,3.77-4.84,9.58,9.58,0,0,1,5.82-1.78,10.21,10.21,0,0,1,5.16,1.24,10.6,10.6,0,0,1,3.5,3.29,13.89,13.89,0,0,1,2,4.62,22.41,22.41,0,0,1,.61,5.21,22.13,22.13,0,0,1-.63,5.23,14.45,14.45,0,0,1-2,4.67,10.94,10.94,0,0,1-3.53,3.34,10,10,0,0,1-5.16,1.26,10,10,0,0,1-5.84-1.7,10.82,10.82,0,0,1-3.74-4.82h-.2v5.89H0Zm4.43,25.84a16,16,0,0,0,.48,3.91,10.21,10.21,0,0,0,1.54,3.41,7.9,7.9,0,0,0,2.65,2.39,7.73,7.73,0,0,0,3.84.9,7,7,0,0,0,3.8-.95,7.52,7.52,0,0,0,2.43-2.46,10.45,10.45,0,0,0,1.32-3.41,19,19,0,0,0,.39-3.84,17.56,17.56,0,0,0-.42-3.8,10.44,10.44,0,0,0-1.34-3.38,7.39,7.39,0,0,0-2.45-2.43,7,7,0,0,0-3.73-1,8,8,0,0,0-3.91.9,7.87,7.87,0,0,0-2.66,2.36A9.88,9.88,0,0,0,4.89,130,16.78,16.78,0,0,0,4.43,133.92Z"/><path class="cls-2" d="M31,120.1h4.47v16.4a15.58,15.58,0,0,0,.32,3.23,7,7,0,0,0,1.09,2.58A5.27,5.27,0,0,0,39,144a7.68,7.68,0,0,0,3.24.6,7,7,0,0,0,6.32-3.43,10.67,10.67,0,0,0,1.32-3.45,19.39,19.39,0,0,0,.39-3.87V120.1h4.47v27.64H50.36v-6.28h-.14a12.22,12.22,0,0,1-3.72,5,9.35,9.35,0,0,1-5.92,1.87q-4.9,0-7.25-2.85A11.52,11.52,0,0,1,31,137.91Z"/><path class="cls-2" d="M62.38,120.1h4.38v6h.1a15.08,15.08,0,0,1,1.19-2.5,8.56,8.56,0,0,1,1.68-2.07,7.58,7.58,0,0,1,2.21-1.39,7.2,7.2,0,0,1,2.75-.51,6.83,6.83,0,0,1,3.07.63,5.5,5.5,0,0,1,2,1.71,6.72,6.72,0,0,1,1.12,2.53,13.23,13.23,0,0,1,.34,3.06c0,.65,0,1.31-.09,2a13.11,13.11,0,0,1-.35,2l-4.18.54a13.31,13.31,0,0,0,.34-2,18.84,18.84,0,0,0,.1-2,11.46,11.46,0,0,0-.17-2,4.81,4.81,0,0,0-.63-1.68A3.43,3.43,0,0,0,75,123.31a3.92,3.92,0,0,0-1.94-.44,4.37,4.37,0,0,0-3.17,1.19A8.29,8.29,0,0,0,68,127a14.26,14.26,0,0,0-.93,3.62,27.84,27.84,0,0,0-.24,3.39v13.77H62.38Z"/><path class="cls-2" d="M98,119.51a13.45,13.45,0,0,1,5.62,1.1,10.78,10.78,0,0,1,4,3,13,13,0,0,1,2.39,4.55,19.37,19.37,0,0,1,.8,5.64,20.42,20.42,0,0,1-.78,5.74,12.79,12.79,0,0,1-2.38,4.63,11.37,11.37,0,0,1-4,3.06,13.62,13.62,0,0,1-5.75,1.12,13.23,13.23,0,0,1-5.66-1.12,11.45,11.45,0,0,1-4-3,12.59,12.59,0,0,1-2.38-4.55A19.91,19.91,0,0,1,85,134a18.47,18.47,0,0,1,.83-5.65,13.19,13.19,0,0,1,2.48-4.6,11.64,11.64,0,0,1,4.06-3.09A13.32,13.32,0,0,1,98,119.51Zm0,25a8.18,8.18,0,0,0,4-.88,7.17,7.17,0,0,0,2.55-2.34,9.75,9.75,0,0,0,1.39-3.38,18.74,18.74,0,0,0,.41-4,18.09,18.09,0,0,0-.41-3.94,10.05,10.05,0,0,0-1.39-3.39,7.37,7.37,0,0,0-2.55-2.38,7.84,7.84,0,0,0-3.92-.9,8.4,8.4,0,0,0-4,.85,7,7,0,0,0-2.61,2.31A10,10,0,0,0,90,129.83a17.87,17.87,0,0,0-.44,4,18.64,18.64,0,0,0,.42,4,9.78,9.78,0,0,0,1.41,3.43,7.43,7.43,0,0,0,2.6,2.41A8,8,0,0,0,98,144.53Z"/><path class="cls-2" d="M127.05,119.51a9.24,9.24,0,0,1,5.48,1.61,10.52,10.52,0,0,1,3.52,4.53h.15V120.1h4.28V144a20.53,20.53,0,0,1-.7,5.6,10.48,10.48,0,0,1-2.22,4.18,9.79,9.79,0,0,1-3.87,2.63,15.29,15.29,0,0,1-5.62.92,22.79,22.79,0,0,1-3.84-.31,13.08,13.08,0,0,1-3.43-1.07,10.41,10.41,0,0,1-2.87-2.05,11.84,11.84,0,0,1-2.22-3.18l3.75-2.15a7.81,7.81,0,0,0,3.46,3.9,11.42,11.42,0,0,0,5.15,1.07,9.11,9.11,0,0,0,3.82-.71,6.09,6.09,0,0,0,2.46-2,7.9,7.9,0,0,0,1.31-3,17.58,17.58,0,0,0,.39-3.84v-3.5H136a11.52,11.52,0,0,1-3.75,4.43,9.57,9.57,0,0,1-5.55,1.6,11.38,11.38,0,0,1-5.08-1.07,10.59,10.59,0,0,1-3.63-2.87,12.32,12.32,0,0,1-2.19-4.23,18,18,0,0,1-.73-5.11,17.25,17.25,0,0,1,.78-5.21,13.31,13.31,0,0,1,2.31-4.38,11.37,11.37,0,0,1,3.77-3A11.52,11.52,0,0,1,127.05,119.51Zm-7.39,13.73a13.79,13.79,0,0,0,.48,3.65,9.28,9.28,0,0,0,1.51,3.09,7.68,7.68,0,0,0,2.55,2.14,7.81,7.81,0,0,0,3.63.8,8.29,8.29,0,0,0,3.77-.8,7.23,7.23,0,0,0,2.58-2.14,8.9,8.9,0,0,0,1.46-3.14,15.85,15.85,0,0,0,0-7.5,9.53,9.53,0,0,0-1.38-3.18,6.9,6.9,0,0,0-2.48-2.22,7.69,7.69,0,0,0-3.68-.83,8.18,8.18,0,0,0-3.79.83,7.67,7.67,0,0,0-2.66,2.22,9.38,9.38,0,0,0-1.53,3.23A15.33,15.33,0,0,0,119.66,133.24Z"/><path class="cls-2" d="M159,119.51a13.45,13.45,0,0,1,5.62,1.1,10.78,10.78,0,0,1,4,3,13,13,0,0,1,2.39,4.55,19.37,19.37,0,0,1,.8,5.64,20.42,20.42,0,0,1-.78,5.74,12.79,12.79,0,0,1-2.38,4.63,11.37,11.37,0,0,1-4,3.06,13.58,13.58,0,0,1-5.74,1.12,13.25,13.25,0,0,1-5.67-1.12,11.45,11.45,0,0,1-4-3,12.59,12.59,0,0,1-2.38-4.55A19.91,19.91,0,0,1,146,134a18.47,18.47,0,0,1,.83-5.65,13.19,13.19,0,0,1,2.48-4.6,11.73,11.73,0,0,1,4.06-3.09A13.32,13.32,0,0,1,159,119.51Zm-.05,25a8.18,8.18,0,0,0,4-.88,7.17,7.17,0,0,0,2.55-2.34,9.75,9.75,0,0,0,1.39-3.38,18.74,18.74,0,0,0,.41-4,18.09,18.09,0,0,0-.41-3.94,10.05,10.05,0,0,0-1.39-3.39,7.37,7.37,0,0,0-2.55-2.38,7.84,7.84,0,0,0-3.92-.9,8.4,8.4,0,0,0-4,.85,7,7,0,0,0-2.61,2.31,10,10,0,0,0-1.41,3.36,17.87,17.87,0,0,0-.44,4,18.64,18.64,0,0,0,.42,4,9.78,9.78,0,0,0,1.41,3.43,7.43,7.43,0,0,0,2.6,2.41A8,8,0,0,0,159,144.53Z"/></g></g></svg>